<svg viewBox="0 0 271 290" fill="none" xmlns="http://www.w3.org/2000/svg">
<path d="M86.0957 219.253V191.846H61.3936V219.253H86.0957Z" fill="#8C56D3"/>
<path fill-rule="evenodd" clip-rule="evenodd" d="M110.223 26.7692H86.0957V52.9011H61.3936V82.2198H36.6915V108.989H11.4149V191.846H36.6915V137.033H61.3936V165.077H86.0957V191.846H110.223V165.077H159.628V191.846H184.904V165.077H209.606V137.033H234.883V191.846H259.585V108.989H234.883V82.2198H209.606V52.9011H184.904V26.7692H159.628V52.9011H110.223V26.7692ZM110.223 82.2198H86.0957V108.989H110.223V82.2198ZM184.904 82.2198H159.628V108.989H184.904V82.2198Z" fill="#8C56D3"/>
<path d="M184.904 0V26.7692H209.606V0H184.904Z" fill="#8C56D3"/>
<path d="M86.0957 0H61.3936V26.7692H86.0957V0Z" fill="#8C56D3"/>
<path d="M209.606 191.846H184.904V219.253H209.606V191.846Z" fill="#8C56D3"/>
<path d="M0.5 232.637H6.24468V226.264H34.9681V232.637H40.7128V239.011H29.2234V232.637H11.9894V283.626H29.2234V258.132H23.4787V251.758H40.7128V290H6.24468V283.626H0.5V232.637Z" fill="#8C56D3"/>
<path d="M46.4574 232.637H52.2021V226.264H80.9255V232.637H86.6702V290H75.1808V258.132H57.9468V290H46.4574V232.637ZM57.9468 232.637V251.758H75.1808V232.637H57.9468Z" fill="#8C56D3"/>
<path d="M92.4149 226.264H126.883V232.637H132.628V290H121.138V232.637H115.394V290H109.649V232.637H103.904V290H92.4149V226.264Z" fill="#8C56D3"/>
<path d="M138.372 232.637H144.117V226.264H178.585V232.637H149.862V251.758H172.84V258.132H149.862V283.626H178.585V290H144.117V283.626H138.372V232.637Z" fill="#8C56D3"/>
<path d="M184.33 232.637H190.074V226.264H224.543V232.637H195.819V251.758H218.798V258.132H195.819V283.626H224.543V290H190.074V283.626H184.33V232.637Z" fill="#8C56D3"/>
<path d="M236.032 226.264H270.5V232.637H259.011V290H247.521V232.637H236.032V226.264Z" fill="#8C56D3"/>
</svg>
